 <svg  version="1.0" xmlns="http://www.w3.org/2000/svg"  width="300.000000pt" height="300.000000pt" viewBox="0 0 300.000000 300.000000"  preserveAspectRatio="xMidYMid meet">  <g transform="translate(0.000000,300.000000) scale(0.050000,-0.050000)" fill="#7d2f83" stroke="none"> <path d="M2910 5636 c-22 -12 -94 -72 -160 -134 -66 -62 -259 -242 -430 -401 -472 -439 -990 -963 -1030 -1041 -50 -96 -73 -573 -60 -1210 54 -2587 37 -2398 225 -2448 103 -28 3025 -45 3148 -19 94 20 180 91 239 199 33 61 31 2398 -3 2888 -12 176 -21 358 -20 404 5 146 -37 200 -582 738 -1060 1050 -1153 1122 -1327 1024z m333 -611 c262 -268 856 -850 1073 -1051 l147 -136 7 -1014 c4 -558 14 -1258 21 -1556 l14 -541 -648 -14 c-809 -16 -2018 -14 -2137 3 l-90 14 -11 1460 c-8 1132 -17 1490 -38 1595 l-28 134 99 85 c178 155 412 378 861 820 244 240 456 436 472 436 15 0 131 -106 258 -235z"/> <path d="M2120 2974 c0 -27 290 -210 362 -229 64 -16 42 28 -37 76 -288 173 -325 191 -325 153z"/> <path d="M3786 2823 c-164 -119 -223 -183 -167 -183 30 0 421 280 421 301 0 45 -82 6 -254 -118z"/> <path d="M3123 2739 c-35 -21 -74 -61 -86 -88 l-23 -50 -69 61 c-222 195 -314 -173 -99 -397 116 -121 283 -22 405 240 91 195 20 324 -128 234z"/> <path d="M2165 2546 c-71 -9 -85 -34 -31 -55 54 -20 369 11 360 37 -7 23 -209 34 -329 18z"/> <path d="M3631 2461 c-24 -38 322 -120 373 -88 40 24 -32 63 -140 76 -63 7 -138 17 -167 23 -29 6 -59 1 -66 -11z"/> <path d="M2364 2115 c-130 -132 -172 -195 -128 -195 25 0 304 289 304 315 0 46 -31 25 -176 -120z"/> <path d="M3580 2163 c0 -40 301 -267 336 -253 29 11 21 25 -46 84 -160 141 -290 216 -290 169z"/> </g> </svg> 